<svg width="51" height="52" viewBox="0 0 51 52" fill="none" xmlns="http://www.w3.org/2000/svg">
<path d="M25.2267 51.8616C39.159 51.8616 50.4533 40.3552 50.4533 26.1614C50.4533 11.9676 39.159 0.461273 25.2267 0.461273C11.2944 0.461273 0 11.9676 0 26.1614C0 40.3552 11.2944 51.8616 25.2267 51.8616Z" fill="#DFE6FB"/>
<path d="M34.2389 16.7359C34.1467 16.6544 34.0383 16.594 33.9211 16.5589C33.804 16.5238 33.6808 16.5148 33.5599 16.5325L21.6329 18.2694C21.4297 18.2988 21.2438 18.402 21.1094 18.56C20.9749 18.718 20.9011 18.9202 20.9013 19.1292V29.3033C20.3807 28.994 19.7886 28.8314 19.1859 28.8321C18.2794 28.8333 17.4104 29.2006 16.7694 29.8537C16.1284 30.5067 15.7678 31.3921 15.7667 32.3156C15.7678 33.2391 16.1284 34.1245 16.7694 34.7775C17.4104 35.4305 18.2794 35.7979 19.1859 35.799C20.0924 35.7979 20.9615 35.4305 21.6025 34.7775C22.2435 34.1245 22.6041 33.2391 22.6052 32.3156V23.3526L32.8283 21.8642V27.5685C32.3081 27.259 31.7164 27.0961 31.1139 27.0963C30.2072 27.0971 29.3379 27.4644 28.6967 28.1174C28.0555 28.7705 27.6947 29.656 27.6936 30.5797C27.6947 31.5034 28.0555 32.389 28.6967 33.042C29.3379 33.6951 30.2072 34.0623 31.1139 34.0632C32.0204 34.062 32.8895 33.6947 33.5305 33.0417C34.1715 32.3886 34.5321 31.5033 34.5332 30.5797V17.3913C34.5333 17.2667 34.507 17.1437 34.4562 17.0304C34.4055 16.9171 34.3313 16.8163 34.2389 16.7348V16.7359Z" fill="#8F8686"/>
</svg>
