<svg width="473" height="220" viewBox="0 0 473 220" fill="none" xmlns="http://www.w3.org/2000/svg">
<g clip-path="url(#clip0_8_2)">
<mask id="mask0_8_2" style="mask-type:alpha" maskUnits="userSpaceOnUse" x="0" y="0" width="473" height="220">
<path d="M0 0H473V220H0V0Z" fill="white"/>
</mask>
<g mask="url(#mask0_8_2)">
<path d="M0 0H473V220H0V0Z" fill="#382AE1"/>
<path d="M229.996 46V59.368H231.767V62.991H238.392V140.974L251.802 147.673V134.782H255.004V149.327L258.14 150.87V263.778L33.5304 266.214V193.977H40.9019V124.52H43.5801V114.97H46.7808V124.52H61.654L61.6529 124.534V124.73C61.6424 126.802 61.5604 143.766 61.5541 156.255V159.273C61.5573 165.271 61.5835 169.643 61.6529 169.718C61.7223 169.793 62.477 169.822 63.4892 169.826H64.0148C66.2768 169.818 69.345 169.718 69.345 169.718V206.157H75.4267V76.399H83.1828V69.243H86.3835V76.4H110.676V82.795H119.915V69.245H123.116V82.795H127.65V106.566H138.532V149.196H151.335V187.888H158.045V107.469H166.496V95.156H169.696V107.468H192.943V63.022H199.728V59.368H226.794V46H229.996ZM16.6517 147.489V151.64H20.0132L26.7771 265.9H-8.40889L-1.63448 151.641H1.01117V147.49H16.6517V147.489Z" fill="#1E1FCD"/>
<path d="M444.422 82V95.368H446.194V98.991H452.819V176.974L466.229 183.673V170.782H469.43V185.327L472.567 186.87V299.778L247.957 302.214V229.977H255.329V160.52H258.007V150.97H261.207V160.52H276.081L276.08 160.534V160.73C276.069 162.802 275.987 179.766 275.981 192.255V195.273C275.984 201.271 276.01 205.643 276.08 205.718C276.149 205.793 276.904 205.822 277.916 205.826H278.441C280.703 205.818 283.772 205.718 283.772 205.718V242.157H289.853V112.399H297.609V105.243H300.81V112.399H325.102V118.794H334.342V105.244H337.542V118.794H342.077V142.565H352.959V185.195H365.761V223.887H372.472V143.468H380.923V131.156H384.122V143.468H407.37V99.022H414.155V95.368H441.221V82H444.422V82ZM231.078 183.489V187.64H234.44L241.204 301.899H206.018L212.792 187.64H215.438V183.489H231.078V183.489Z" fill="#1E1FCD"/>
<path d="M236.23 27.894C236.075 25.777 226.113 31.936 226.113 31.936C226.113 31.936 234.552 25.777 233.828 24.238C233.105 22.698 223.597 29.434 223.597 29.434C223.597 29.434 232.276 23.083 230.935 21.727C229.595 20.37 220.327 27.509 220.327 27.509C220.327 27.509 229.778 19.609 226.171 19.417C224.551 19.335 211.83 27.555 198.049 37.425C201.907 42.007 205.764 46.433 209.931 50.713C214.348 46.369 217.829 42.914 218.302 42.337C219.719 40.605 233.8 41.76 233.858 39.643C233.915 37.526 224.58 36.563 224.58 36.563C224.58 36.563 236.384 30.011 236.23 27.894V27.894Z" fill="white"/>
<path d="M209.872 51.125C209.813 51.126 209.754 51.1151 209.699 51.093C209.645 51.071 209.595 51.0383 209.555 50.997C205.851 47.185 202.071 42.96 197.644 37.681C197.607 37.6377 197.579 37.588 197.563 37.5346C197.547 37.4812 197.541 37.4253 197.548 37.37C197.567 37.2582 197.629 37.157 197.721 37.086C207.915 29.754 223.828 19.005 226.103 19.005C226.613 18.959 227.094 19.239 227.281 19.692C227.589 20.517 226.509 22.038 225.091 23.569C227.734 21.892 230.376 20.599 231.206 21.443C231.401 21.643 231.493 21.914 231.456 22.185C231.388 22.936 230.492 24.018 229.296 25.218C231.109 24.201 232.806 23.431 233.587 23.624C233.713 23.6473 233.83 23.6983 233.931 23.7731C234.031 23.8478 234.112 23.9441 234.165 24.054C234.638 25.017 232.825 26.978 230.714 28.82C232.98 27.665 235.275 26.73 236.153 27.152C236.295 27.2179 236.416 27.3191 236.503 27.445C236.589 27.5709 236.638 27.7167 236.645 27.867C236.789 29.847 229.122 34.428 225.833 36.297C228.843 36.692 234.253 37.672 234.204 39.652C234.204 41.091 231.012 41.329 225.853 41.585C222.844 41.741 219.102 41.934 218.562 42.593C218.021 43.253 215.379 45.874 210.162 51.006C210.083 51.0765 209.981 51.1188 209.872 51.126V51.125ZM198.618 37.498C202.775 42.447 206.333 46.47 209.883 50.098C215.997 44.088 217.598 42.419 217.896 42.08C218.629 41.164 221.388 40.98 225.833 40.751C228.457 40.614 233.337 40.367 233.356 39.633C233.356 38.561 228.766 37.425 224.474 36.976C224.383 36.966 224.297 36.9287 224.23 36.8694C224.162 36.81 224.116 36.7318 224.098 36.646C224.078 36.5603 224.087 36.4709 224.123 36.3902C224.159 36.3096 224.221 36.2416 224.3 36.196C230.019 33.044 235.872 29.086 235.796 27.949C235.198 27.555 230.877 29.562 226.355 32.357C226.259 32.4034 226.149 32.4153 226.045 32.3905C225.941 32.3656 225.85 32.3057 225.789 32.2219C225.727 32.138 225.7 32.0358 225.712 31.9344C225.724 31.8329 225.774 31.739 225.853 31.67C230.203 28.499 233.732 25.136 233.404 24.476C232.758 24.173 228.36 26.62 223.847 29.836C223.753 29.8974 223.638 29.9223 223.526 29.9055C223.414 29.8888 223.313 29.8317 223.243 29.746C223.174 29.6603 223.142 29.5525 223.154 29.445C223.165 29.3374 223.22 29.2383 223.306 29.168C226.075 27.134 230.501 23.44 230.617 22.185V22.085C230.077 21.515 225.284 24.293 220.578 27.903C220.486 27.9688 220.371 27.9988 220.256 27.9869C220.141 27.975 220.036 27.9222 219.961 27.839C219.92 27.8014 219.888 27.7566 219.866 27.707C219.844 27.6575 219.833 27.6043 219.833 27.5505C219.833 27.4967 219.844 27.4435 219.866 27.3939C219.888 27.3444 219.92 27.2995 219.961 27.262C223.326 24.439 226.769 20.847 226.461 20.032C226.461 19.949 226.239 19.912 226.066 19.903C224.744 19.839 213.933 26.556 198.618 37.498V37.498Z" fill="#231F20"/>
<path d="M160.881 68.876C158.045 77.39 175.173 116.713 175.173 116.713L196.391 91.796C195.918 91.026 185.193 73.303 185.193 73.303C185.193 73.303 201.02 59.383 209.844 50.713C205.697 46.433 201.782 41.97 197.962 37.425C181.028 49.558 162.443 64.185 160.881 68.876V68.876Z" fill="#231F20"/>
<path d="M175.173 117.117H175.068C174.995 117.107 174.926 117.079 174.868 117.036C174.81 116.992 174.765 116.934 174.739 116.869C174.035 115.265 157.583 77.326 160.437 68.766C162.048 63.936 180.69 49.246 197.692 37.113C197.779 37.0486 197.89 37.0192 198 37.0312C198.11 37.0431 198.211 37.0955 198.281 37.177C202.688 42.437 206.458 46.653 210.153 50.447C210.3 50.604 210.3 50.84 210.153 50.997C202.023 58.988 187.778 71.58 185.724 73.385C189.403 79.4583 193.084 85.531 196.766 91.603C196.86 91.743 196.86 91.923 196.766 92.062L175.549 116.97C175.504 117.022 175.447 117.063 175.381 117.089C175.315 117.115 175.244 117.124 175.173 117.117V117.117ZM197.914 37.984C181.905 49.457 162.829 64.377 161.267 68.995C158.702 76.693 173.1 110.848 175.27 115.925L195.889 91.759L184.846 73.504C184.801 73.4225 184.785 73.329 184.8 73.238C184.816 73.1469 184.863 73.0633 184.934 73C185.087 72.863 200.518 59.254 209.294 50.704C205.746 47.038 202.119 42.988 197.914 37.984V37.984Z" fill="#231F20"/>
<path d="M211.32 109.529C213.055 120.947 221.05 130.606 229.73 139.431C234.928 144.673 241.303 150.007 248.913 149.668C252.547 149.494 255.961 148.008 259.135 146.323C267.078 142.132 274.185 136.645 280.13 130.111C278.966 130.115 277.842 129.71 276.975 128.972C276.107 128.234 275.558 127.217 275.433 126.116C276.984 126.805 278.705 127.074 280.407 126.893C282.108 126.712 283.724 126.088 285.077 125.089C290.979 120.636 288.115 116.704 283.601 113.387C276.546 108.219 270.933 101.482 267.256 93.767C261.623 81.797 250.436 65.807 233.867 69.454C217.935 72.954 213.614 86.536 211.415 100.007C210.883 103.159 210.851 106.368 211.32 109.529V109.529Z" fill="white"/>
<path d="M248.199 150.098C240.724 150.098 234.513 144.875 229.411 139.715C221.262 131.468 212.688 121.451 210.885 109.593C210.397 106.376 210.419 103.108 210.953 99.897C211.918 94.124 213.45 86.728 217.086 80.735C218.805 77.7504 221.183 75.1556 224.056 73.1289C226.93 71.1023 230.231 69.6919 233.732 68.995C241.293 67.337 255.74 68.317 267.631 93.546C271.271 101.204 276.839 107.889 283.843 113.011C287.218 115.494 288.8 117.676 288.819 119.893C288.819 121.726 287.652 123.613 285.319 125.392C284.017 126.352 282.48 126.982 280.853 127.224C279.226 127.466 277.56 127.312 276.012 126.776C276.287 127.608 276.831 128.335 277.568 128.854C278.304 129.372 279.194 129.655 280.111 129.662C280.197 129.658 280.283 129.679 280.357 129.721C280.431 129.764 280.489 129.826 280.526 129.901C280.563 129.974 280.577 130.055 280.564 130.136C280.552 130.216 280.515 130.29 280.457 130.35C274.497 136.952 267.349 142.491 259.347 146.708C256.367 148.284 252.788 149.924 248.93 150.098H248.198H248.199ZM238.429 69.325C236.916 69.325 235.409 69.489 233.934 69.811C218.283 73.257 214.058 86.361 211.821 100.053C211.302 103.178 211.28 106.36 211.754 109.492C213.519 121.13 221.996 131.028 230.077 139.166C235.208 144.352 241.448 149.613 248.913 149.246C252.586 149.081 256.049 147.486 258.942 145.956C266.578 141.92 273.429 136.666 279.194 130.423C278.095 130.234 277.089 129.711 276.328 128.933C275.567 128.155 275.091 127.164 274.971 126.107C274.964 126.034 274.978 125.96 275.012 125.893C275.045 125.827 275.098 125.771 275.163 125.731C275.228 125.693 275.303 125.673 275.38 125.673C275.457 125.673 275.532 125.693 275.597 125.731C277.07 126.382 278.702 126.636 280.316 126.465C281.93 126.293 283.464 125.703 284.749 124.759C286.862 123.156 287.932 121.534 287.913 119.929C287.913 118.024 286.389 115.989 283.284 113.707C276.17 108.501 270.513 101.709 266.811 93.931C257.273 73.623 246.144 69.325 238.429 69.325V69.325Z" fill="#231F20"/>
<path d="M321.483 145.37C320.809 147.908 309.728 166.713 309.728 166.713L324.194 174.145C324.194 174.145 337.281 153.305 338.399 151.922C339.518 150.538 349.008 138.524 350.301 134.309C351.594 130.093 342.47 126.977 338.728 127.316C334.986 127.656 322.159 142.831 321.483 145.37V145.37Z" fill="white"/>
<path d="M324.174 174.567C324.103 174.567 324.032 174.548 323.971 174.512L309.506 167.08C309.454 167.054 309.408 167.017 309.371 166.973C309.335 166.929 309.308 166.878 309.294 166.823C309.27 166.773 309.258 166.718 309.258 166.663C309.258 166.608 309.27 166.553 309.294 166.503C313.151 160.023 320.471 147.257 321.002 145.269C321.716 142.575 334.687 127.225 338.602 126.941C341.447 126.711 347.379 128.351 349.76 131.091C350.196 131.536 350.506 132.079 350.661 132.669C350.816 133.259 350.811 133.876 350.647 134.464C349.268 139.046 338.775 152.096 338.68 152.224C337.58 153.572 324.627 174.218 324.493 174.402C324.456 174.451 324.409 174.491 324.353 174.519C324.298 174.548 324.237 174.564 324.174 174.567V174.567ZM310.335 166.539L324.021 173.586C325.785 170.773 336.981 152.966 338.032 151.666C340.242 148.916 348.7 138.029 349.857 134.189C349.983 133.731 349.982 133.25 349.855 132.793C349.729 132.336 349.48 131.917 349.133 131.578C346.963 129.076 341.322 127.518 338.737 127.728C335.208 128.022 322.497 143.308 321.908 145.47C321.271 147.862 311.936 163.817 310.335 166.539V166.539Z" fill="#231F20"/>
<path d="M317.327 153.498L304.404 168.473L276.533 150.722L264.66 171.726C264.66 171.726 304.134 199.887 309.728 197.193C315.321 194.499 332.266 161.269 332.266 161.269L317.327 153.499V153.498Z" fill="#231F20"/>
<path d="M308.831 197.761C300.691 197.761 268.258 174.796 264.401 172.047C264.322 171.988 264.267 171.904 264.246 171.81C264.224 171.716 264.238 171.618 264.285 171.533L276.156 150.529C276.184 150.48 276.222 150.436 276.269 150.402C276.315 150.367 276.369 150.342 276.426 150.328C276.483 150.314 276.543 150.312 276.601 150.321C276.659 150.33 276.715 150.351 276.764 150.382L304.298 167.932L316.98 153.269C317.042 153.195 317.129 153.144 317.226 153.126C317.323 153.108 317.424 153.123 317.51 153.169L332.497 160.939C332.591 160.991 332.66 161.074 332.692 161.173C332.725 161.271 332.717 161.378 332.67 161.471C331.977 162.837 315.572 194.856 309.901 197.578C309.565 197.719 309.197 197.782 308.831 197.761V197.761ZM265.201 171.607C276.35 179.534 305.175 198.934 309.564 196.836C314.665 194.37 329.942 164.981 331.745 161.444L317.433 154.011L304.732 168.729C304.668 168.809 304.574 168.863 304.47 168.879C304.366 168.894 304.259 168.87 304.173 168.812L276.678 151.299L265.201 171.607V171.607ZM329.161 116.878L329.035 153.498H347.272V116.878H329.161Z" fill="#231F20"/>
<path d="M347.272 153.938H329.036C328.979 153.938 328.923 153.927 328.871 153.906C328.819 153.886 328.772 153.855 328.732 153.817C328.693 153.778 328.662 153.733 328.641 153.683C328.62 153.633 328.61 153.58 328.611 153.526L328.727 116.869C328.729 116.761 328.776 116.659 328.857 116.583C328.939 116.508 329.047 116.466 329.161 116.466H347.271C347.507 116.466 347.696 116.646 347.696 116.869V153.526C347.697 153.58 347.687 153.633 347.667 153.683C347.646 153.733 347.615 153.778 347.575 153.817C347.536 153.855 347.489 153.886 347.437 153.906C347.385 153.927 347.329 153.938 347.272 153.938V153.938ZM329.469 153.132H346.829V117.282H329.565L329.469 153.132Z" fill="#231F20"/>
<path d="M331.012 120.113L330.916 148.889H345.401V120.113H331.012Z" fill="white"/>
<path d="M345.401 149.301H330.935C330.878 149.302 330.821 149.292 330.768 149.272C330.715 149.251 330.666 149.221 330.626 149.182C330.584 149.143 330.552 149.096 330.53 149.044C330.509 148.992 330.499 148.936 330.501 148.88L330.588 120.113C330.591 120.003 330.639 119.898 330.722 119.821C330.805 119.744 330.916 119.701 331.032 119.701H345.42C345.66 119.701 345.854 119.885 345.854 120.113V148.889C345.854 148.945 345.842 149 345.819 149.051C345.796 149.102 345.763 149.148 345.72 149.187C345.678 149.225 345.628 149.255 345.573 149.275C345.518 149.295 345.46 149.303 345.401 149.301V149.301ZM331.359 148.44H344.958V120.535H331.455L331.36 148.44H331.359Z" fill="#231F20"/>
<path d="M320.693 147.276C320.693 147.276 317.974 134.941 322.053 133.007C326.131 131.074 340.154 128.81 337.985 131.834C335.815 134.858 328.216 136.728 328.216 136.728C328.216 136.728 329.778 141.044 328.061 144.105" fill="white"/>
<path d="M320.693 147.688C320.593 147.69 320.495 147.657 320.417 147.597C320.339 147.537 320.287 147.452 320.268 147.358C320.153 146.845 317.52 134.684 321.86 132.631C325.381 130.973 336.74 128.837 338.399 130.634C338.575 130.839 338.666 131.099 338.655 131.363C338.644 131.628 338.533 131.88 338.341 132.072C336.412 134.822 330.462 136.562 328.765 137.022C329.122 138.222 329.932 141.658 328.447 144.352C328.39 144.449 328.295 144.521 328.183 144.552C328.071 144.582 327.95 144.57 327.848 144.517C327.747 144.463 327.671 144.373 327.637 144.268C327.603 144.162 327.614 144.048 327.666 143.949C329.276 141.09 327.81 136.957 327.791 136.911C327.767 136.859 327.755 136.803 327.755 136.746C327.755 136.689 327.767 136.633 327.791 136.581C327.821 136.53 327.861 136.485 327.909 136.449C327.957 136.413 328.012 136.387 328.071 136.371C328.147 136.371 335.535 134.538 337.59 131.651C337.734 131.449 337.772 131.303 337.705 131.229C336.664 130.093 326.132 131.596 322.217 133.429C319.121 134.895 320.365 143.885 321.098 147.23C321.11 147.284 321.112 147.339 321.102 147.393C321.092 147.447 321.07 147.499 321.039 147.545C321.008 147.591 320.967 147.631 320.919 147.662C320.872 147.693 320.818 147.714 320.761 147.725L320.693 147.688V147.688Z" fill="#231F20"/>
<path d="M219.864 123.32L195.841 84.135L168.838 112.626L178.867 133.172C178.867 133.172 163.436 167.877 163.436 235.902C163.436 235.902 245.585 235.563 266.261 235.563L239.258 195.653C239.258 195.653 246.009 177.16 249.491 172.541L269.598 182.943L293.112 152.509L219.864 123.321V123.32Z" fill="#75ECCA"/>
<path d="M219.517 160.674C232.777 168.005 235.911 138.204 236.5 131.752C236.769 129.977 236.658 128.169 236.172 126.436C235.41 124.237 233.626 122.533 231.841 120.938C229.711 119.105 227.251 117.181 224.348 117.062C222.994 117.082 221.663 117.403 220.463 118C219.262 118.596 218.225 119.452 217.434 120.498C215.869 122.602 214.743 124.973 214.117 127.481C210.992 137.846 211.107 148.788 217.134 158.209C217.639 159.107 218.355 159.882 219.227 160.472L219.517 160.674V160.674Z" fill="#231F20"/>
<path d="M223.481 162.232C222.001 162.189 220.559 161.771 219.305 161.022L219.005 160.848C218.075 160.225 217.312 159.402 216.777 158.447C211.252 149.805 210.191 139.074 213.711 127.399C214.35 124.842 215.499 122.425 217.095 120.279C217.924 119.177 219.015 118.278 220.279 117.653C221.543 117.029 222.944 116.698 224.368 116.686C227.339 116.805 229.855 118.674 232.083 120.672C233.896 122.258 235.728 124.008 236.529 126.308C237.027 128.101 237.145 129.97 236.876 131.807C235.98 141.42 233.404 158.071 226.267 161.581C225.407 162.008 224.451 162.231 223.481 162.231V162.232ZM224.078 117.492C222.833 117.551 221.619 117.877 220.525 118.445C219.431 119.013 218.486 119.809 217.761 120.773C216.235 122.838 215.139 125.162 214.531 127.619C211.068 139.074 212.101 149.613 217.501 158.025C217.962 158.869 218.623 159.6 219.43 160.161L219.71 160.316C222.005 161.59 224.03 161.764 225.891 160.848C230.848 158.41 234.571 147.798 236.056 131.715C236.314 129.992 236.209 128.239 235.747 126.555C235.015 124.439 233.269 122.78 231.532 121.259C229.373 119.371 227.011 117.593 224.31 117.492H224.079H224.078ZM259.086 104.791C260.311 109.015 258.305 114.395 255.296 117.52C253.29 119.582 248.893 120.132 248.005 116.777C247.452 114.568 247.369 112.277 247.761 110.037C248.154 107.797 249.014 105.655 250.291 103.737C252.219 100.722 255.914 98.999 258.286 102.875C258.639 103.478 258.908 104.122 259.086 104.791Z" fill="#231F20"/>
<path d="M251.304 119.582C250.934 119.584 250.565 119.544 250.204 119.462C249.557 119.306 248.969 118.98 248.507 118.522C248.045 118.063 247.727 117.491 247.59 116.869C247.024 114.613 246.935 112.272 247.329 109.982C247.723 107.693 248.592 105.501 249.886 103.535C251.237 101.473 253.145 100.227 254.93 100.236C255.942 100.236 257.399 100.686 258.614 102.683C258.997 103.313 259.295 103.988 259.501 104.69C260.832 109.272 258.537 114.77 255.644 117.795C255.085 118.356 254.412 118.804 253.665 119.111C252.919 119.418 252.116 119.578 251.303 119.582H251.304ZM254.882 101.042C253.416 101.042 251.786 102.152 250.609 103.948C249.372 105.824 248.541 107.917 248.165 110.102C247.789 112.288 247.875 114.523 248.42 116.677C248.619 117.655 249.397 118.435 250.417 118.674C251.242 118.818 252.092 118.763 252.89 118.513C253.687 118.263 254.405 117.827 254.979 117.244C257.698 114.441 259.916 109.153 258.682 104.901C258.499 104.26 258.23 103.644 257.881 103.068C257.061 101.73 256.067 101.043 254.921 101.033L254.882 101.043V101.042Z" fill="#231F20"/>
<path d="M238.4 123.696C236.471 130.726 234.543 146.736 222.246 138.359C220.987 137.419 219.888 136.3 218.986 135.042C212.93 127.372 214.656 122.532 217.79 114.111C219.141 110.445 220.308 106.779 221.648 103.114C222.989 99.448 225.197 96.002 227.029 92.529C226.962 92.649 233.057 93.445 239.152 90.815C245.247 88.185 250.291 85.455 250.291 85.455C251.941 87.8 253.725 89.578 254.602 92.365C255.412 95.067 255.645 97.895 255.287 100.685C254.515 107.531 251.632 114.935 248.362 121.048C245.093 127.16 238.4 123.696 238.4 123.696Z" fill="white"/>
<path d="M228.457 141.172C226.528 141.172 224.378 140.348 221.985 138.716C220.69 137.75 219.558 136.6 218.629 135.307C212.39 127.399 214.27 122.349 217.376 113.992C218.021 112.232 218.64 110.427 219.237 108.685C219.883 106.807 220.548 104.873 221.262 102.976C222.339 100.319 223.612 97.7374 225.071 95.251C225.612 94.279 226.152 93.308 226.663 92.337C226.688 92.2878 226.724 92.2439 226.767 92.2079C226.811 92.172 226.862 92.1446 226.916 92.1275C226.971 92.1103 227.029 92.1038 227.087 92.1082C227.144 92.1125 227.2 92.1278 227.251 92.153C231.249 92.5997 235.299 92.0042 238.969 90.43C242.739 88.781 246.442 86.996 250.069 85.079C250.167 85.0289 250.282 85.0151 250.391 85.0404C250.499 85.0657 250.594 85.1282 250.657 85.216C251.073 85.803 251.488 86.352 251.902 86.893C253.269 88.48 254.326 90.2863 255.026 92.227C255.849 94.987 256.087 97.874 255.73 100.722C255.026 106.852 252.558 114.138 248.758 121.222C248.361 122.064 247.784 122.818 247.066 123.438C246.347 124.058 245.501 124.53 244.582 124.824C242.608 125.301 240.523 125.123 238.669 124.32C238.46 125.115 238.261 125.912 238.072 126.711C236.799 131.962 235.063 139.166 230.462 140.815C229.821 141.046 229.142 141.167 228.457 141.172V141.172ZM227.3 92.996C226.837 93.913 226.335 94.756 225.853 95.636C224.413 98.0904 223.156 100.638 222.091 103.26C221.387 105.093 220.723 107.073 220.076 108.942C219.43 110.812 218.861 112.498 218.205 114.266C215.09 122.643 213.383 127.252 219.343 134.803C220.218 136.028 221.285 137.119 222.507 138.038C225.534 140.109 228.119 140.788 230.222 140.036C234.378 138.542 236.008 131.606 237.281 126.537C237.542 125.474 237.773 124.475 238.015 123.623C238.033 123.562 238.065 123.506 238.109 123.459C238.152 123.411 238.206 123.374 238.267 123.348C238.328 123.323 238.394 123.31 238.46 123.312C238.526 123.313 238.591 123.329 238.651 123.357C240.434 124.229 242.486 124.466 244.437 124.027C245.241 123.766 245.979 123.35 246.605 122.804C247.231 122.258 247.731 121.594 248.074 120.855C251.824 113.855 254.274 106.669 254.959 100.639C255.307 97.9047 255.078 95.1317 254.284 92.483C253.599 90.6304 252.574 88.9082 251.255 87.397C250.909 86.948 250.551 86.481 250.215 86.013C246.673 87.862 243.064 89.5921 239.394 91.2C235.604 92.8192 231.427 93.4395 227.3 92.996V92.996Z" fill="#231F20"/>
<path d="M236.374 130.496C236.374 130.496 230.405 129.204 227.695 124.485C224.985 119.765 226.625 116.145 226.625 116.145C226.625 116.145 231.832 121.873 238.418 123.724L236.375 130.496H236.374Z" fill="#231F20"/>
<path d="M236.374 130.9H236.278C236.027 130.844 230.087 129.516 227.309 124.695C224.532 119.875 226.142 116.155 226.21 115.998C226.239 115.935 226.284 115.88 226.341 115.839C226.399 115.797 226.466 115.77 226.538 115.76C226.608 115.75 226.68 115.757 226.747 115.78C226.814 115.802 226.875 115.84 226.923 115.889C226.923 115.944 232.141 121.552 238.496 123.349C238.55 123.364 238.6 123.388 238.644 123.422C238.688 123.455 238.724 123.496 238.751 123.543C238.778 123.59 238.795 123.641 238.801 123.694C238.807 123.747 238.802 123.801 238.786 123.852L236.789 130.606C236.763 130.691 236.709 130.766 236.634 130.819C236.559 130.872 236.468 130.9 236.375 130.899L236.374 130.9ZM226.788 116.942C226.227 119.45 226.678 122.068 228.052 124.274C230.26 128.104 234.735 129.607 236.075 129.983L237.879 123.98C232.546 122.358 228.226 118.381 226.789 116.942H226.788ZM240.03 112.15C238.815 112.06 237.638 111.709 236.587 111.123C236.539 111.097 236.496 111.061 236.462 111.019C236.427 110.977 236.402 110.929 236.387 110.877C236.373 110.826 236.369 110.772 236.376 110.719C236.383 110.666 236.401 110.615 236.429 110.569C236.456 110.523 236.493 110.482 236.538 110.449C236.582 110.417 236.633 110.393 236.687 110.379C236.741 110.365 236.797 110.361 236.853 110.368C236.909 110.374 236.962 110.392 237.011 110.418C237.754 110.821 239.905 111.738 240.868 111.141C241.496 110.757 240.811 106.991 239.364 102.894C239.345 102.843 239.337 102.789 239.339 102.735C239.342 102.681 239.357 102.628 239.382 102.579C239.406 102.53 239.441 102.487 239.484 102.451C239.527 102.415 239.577 102.388 239.631 102.371C239.685 102.354 239.742 102.347 239.798 102.351C239.855 102.355 239.91 102.37 239.961 102.395C240.012 102.42 240.057 102.454 240.093 102.496C240.13 102.537 240.157 102.585 240.174 102.637C241.043 105.084 242.884 110.885 241.323 111.801C240.935 112.031 240.487 112.152 240.03 112.15V112.15Z" fill="#231F20"/>
<path d="M238.266 117.117C237.265 117.132 236.274 116.925 235.372 116.512C232.961 115.375 231.515 112.709 231.012 108.585C231.001 108.478 231.034 108.371 231.104 108.287C231.175 108.203 231.277 108.149 231.388 108.135C231.444 108.129 231.501 108.133 231.555 108.147C231.609 108.162 231.66 108.187 231.704 108.22C231.748 108.253 231.784 108.295 231.811 108.341C231.838 108.388 231.855 108.44 231.861 108.493C232.314 112.323 233.617 114.78 235.719 115.824C238.93 117.336 243.03 115.045 243.067 115.027C243.115 114.999 243.169 114.98 243.225 114.972C243.28 114.963 243.337 114.966 243.392 114.978C243.447 114.991 243.498 115.014 243.544 115.046C243.589 115.078 243.627 115.119 243.656 115.165C243.713 115.258 243.73 115.368 243.703 115.473C243.676 115.577 243.607 115.667 243.511 115.724C241.904 116.578 240.106 117.056 238.266 117.117V117.117ZM238.718 98.825C238.61 98.825 238.507 98.7862 238.428 98.7164C238.35 98.6466 238.302 98.551 238.294 98.449C238.226 97.533 237.947 96.974 237.445 96.735C236.481 96.259 234.677 97.12 234.079 97.496C233.985 97.5525 233.871 97.5716 233.762 97.5493C233.653 97.5269 233.557 97.4649 233.495 97.3764C233.434 97.288 233.411 97.18 233.431 97.0757C233.452 96.9714 233.515 96.8789 233.606 96.818C233.712 96.754 236.182 95.232 237.821 96.011C238.248 96.2564 238.597 96.6079 238.83 97.0278C239.063 97.4477 239.171 97.92 239.143 98.394C239.146 98.4469 239.139 98.5001 239.121 98.5504C239.104 98.6007 239.076 98.6471 239.039 98.6871C239.002 98.7271 238.957 98.7597 238.907 98.7832C238.857 98.8067 238.803 98.8205 238.747 98.824H238.718V98.825ZM249.414 103.37C249.308 103.37 249.206 103.333 249.127 103.265C249.048 103.198 248.999 103.104 248.989 103.004C248.989 103.004 248.796 100.988 247.591 100.254C246.55 99.604 245.334 101.088 245.324 101.107C245.29 101.149 245.247 101.185 245.199 101.211C245.15 101.238 245.097 101.255 245.041 101.262C244.985 101.269 244.929 101.265 244.875 101.251C244.821 101.237 244.77 101.213 244.726 101.18C244.681 101.148 244.643 101.108 244.614 101.063C244.585 101.017 244.566 100.966 244.558 100.913C244.55 100.86 244.553 100.806 244.567 100.755C244.581 100.703 244.606 100.655 244.64 100.612C245.228 99.879 246.694 98.724 248.063 99.576C249.616 100.548 249.829 102.857 249.838 102.949C249.843 103.002 249.837 103.056 249.821 103.106C249.804 103.157 249.777 103.205 249.741 103.246C249.705 103.286 249.661 103.32 249.612 103.345C249.562 103.369 249.508 103.384 249.452 103.389L249.414 103.37V103.37ZM215.495 101.153C215.344 102.613 215.611 104.085 216.267 105.413C217.636 107.824 221.012 108.805 223.77 108.026C230.974 106 234.437 92.978 228.988 87.864C223.925 83.117 218.176 90.614 216.99 95.04C216.441 97.12 215.572 99.045 215.496 101.153H215.495Z" fill="#231F20"/>
<path d="M221.841 108.695C220.651 108.725 219.474 108.455 218.429 107.912C217.384 107.37 216.508 106.574 215.891 105.606C215.188 104.216 214.904 102.668 215.071 101.134C215.203 99.6 215.527 98.087 216.035 96.625C216.209 96.066 216.382 95.507 216.536 94.948C217.376 91.869 220.491 87.095 224.165 86.132C225.07 85.904 226.024 85.9187 226.921 86.1742C227.818 86.4297 228.623 86.9163 229.247 87.58C231.88 90.046 232.739 94.509 231.495 99.228C230.251 103.948 227.328 107.476 223.856 108.392C223.202 108.58 222.524 108.682 221.841 108.695V108.695ZM215.919 101.171C215.766 102.562 216.016 103.966 216.642 105.231C217.37 106.31 218.451 107.131 219.718 107.567C220.986 108.002 222.369 108.029 223.653 107.641C226.847 106.724 229.547 103.444 230.704 99.036C231.86 94.628 231.099 90.421 228.688 88.158C228.171 87.5921 227.498 87.1747 226.745 86.9528C225.992 86.7309 225.189 86.7133 224.426 86.902C221.109 87.819 218.167 92.337 217.395 95.15C217.237 95.7207 217.07 96.2891 216.894 96.855C216.393 98.2522 216.069 99.701 215.929 101.171H215.919V101.171Z" fill="#231F20"/>
<path d="M255.546 109.208C255.375 109.208 255.207 109.165 255.059 109.084C254.911 109.002 254.788 108.884 254.704 108.742C254.619 108.6 254.576 108.44 254.579 108.277C254.581 108.114 254.629 107.954 254.718 107.815C254.823 107.65 265.519 90.935 267.352 80.515C268.017 76.739 266.252 72.909 262.385 69.71C257.1 65.348 249.211 63.396 243.627 65.073C233.694 68.061 228.409 89.816 228.351 90C228.287 90.2299 228.132 90.4273 227.919 90.5507C227.705 90.6742 227.449 90.714 227.206 90.6618C226.962 90.6095 226.749 90.4694 226.612 90.2708C226.474 90.0722 226.423 89.8306 226.469 89.597C226.692 88.68 232.063 66.622 243.048 63.323C249.327 61.444 257.794 63.497 263.648 68.326C268.046 71.992 270.042 76.391 269.261 80.817C267.332 91.594 256.811 108.071 256.367 108.768C256.281 108.902 256.161 109.013 256.017 109.09C255.874 109.167 255.712 109.207 255.547 109.208H255.546Z" fill="#231F20"/>
<path d="M307.837 239C304.38 238.989 300.946 238.46 297.662 237.433C293.749 236.114 290.129 234.113 286.987 231.531C281.635 227.416 276.918 222.504 272.357 217.785C269.464 214.77 266.473 211.655 263.349 208.777C253.561 199.759 243.84 194.957 234.417 194.517C221.744 193.912 210.509 200.795 200.267 208.318C199.303 209.051 198.262 209.812 197.239 210.582C188.955 216.822 179.561 223.888 167.989 222.23C160.1 221.102 153.975 215.934 150.233 211.8C141.023 201.62 136.732 187.057 138.863 172.935C141.12 157.723 150.041 147.001 165.385 141.062C178.086 136.151 190.073 129.277 201.676 122.633L201.771 122.588C208.957 118.464 216.585 113.185 218.64 105.268C218.67 105.146 218.75 105.041 218.862 104.976C218.974 104.911 219.109 104.89 219.237 104.919C219.365 104.949 219.475 105.025 219.544 105.132C219.613 105.238 219.634 105.366 219.603 105.488C217.462 113.735 209.65 119.151 202.292 123.366L202.205 123.421C190.575 130.084 178.549 136.975 165.78 141.915C150.773 147.715 142.056 158.19 139.847 173.073C137.783 186.929 141.949 201.179 150.957 211.159C154.593 215.182 160.524 220.204 168.123 221.286C179.282 222.889 188.106 216.246 196.631 209.83L199.669 207.558C210.066 199.924 221.474 192.941 234.456 193.564C244.1 194.022 254.033 198.907 263.995 208.08C267.139 210.985 270.139 214.11 273.042 217.134C277.574 221.863 282.261 226.748 287.565 230.816C290.614 233.325 294.126 235.274 297.923 236.562C310.952 240.558 323.962 236.626 336.682 224.869C355.556 207.384 366.193 180.881 365.856 152.069C365.702 138.616 363.06 128.104 357.774 119.921C355.643 116.612 352.953 112.928 348.574 111.086C346.337 110.17 341.09 109.822 339.065 112.526C338.294 113.561 338.216 114.78 338.1 116.328C338.1 116.998 338.004 117.748 337.898 118.564C337.875 118.681 337.806 118.784 337.706 118.854C337.605 118.924 337.48 118.954 337.356 118.939C337.233 118.924 337.12 118.864 337.041 118.772C336.963 118.68 336.924 118.563 336.934 118.445C337.049 117.657 337.088 116.952 337.137 116.273C337.242 114.643 337.338 113.24 338.274 111.993C340.627 108.85 346.395 109.18 348.959 110.253C353.627 112.195 356.376 116.017 358.603 119.417C363.985 127.747 366.665 138.414 366.83 152.041C367.167 181.073 356.434 207.851 337.368 225.501C327.704 234.491 317.799 238.991 307.837 239V239ZM214.607 37.022C214.538 37.0213 214.47 37.0071 214.407 36.9803C214.345 36.9534 214.288 36.9145 214.242 36.866C214.153 36.7789 214.103 36.6623 214.103 36.541C214.103 36.4197 214.153 36.3031 214.242 36.216C216.363 34.465 218.466 33.696 220.5 33.915C222.227 34.139 223.796 34.9896 224.879 36.289C225.031 36.495 224.984 36.779 224.774 36.93C224.723 36.9657 224.664 36.9914 224.603 37.0056C224.541 37.0199 224.477 37.0225 224.414 37.0132C224.351 37.0039 224.291 36.983 224.237 36.9515C224.183 36.9201 224.135 36.8788 224.098 36.83C223.175 35.7358 221.853 35.0125 220.395 34.804C218.64 34.611 216.787 35.317 214.878 36.894C214.805 36.9636 214.71 37.0085 214.607 37.022V37.022Z" fill="#231F20"/>
<path d="M243.337 185.39C243.271 185.403 243.202 185.403 243.136 185.39C243.032 185.338 242.954 185.249 242.918 185.143C242.882 185.037 242.891 184.921 242.942 184.821L255.113 161.636C255.169 161.544 255.26 161.475 255.368 161.445C255.475 161.414 255.591 161.424 255.691 161.473C255.79 161.521 255.867 161.603 255.905 161.704C255.943 161.804 255.939 161.914 255.894 162.012L243.733 185.16C243.696 185.23 243.64 185.289 243.57 185.329C243.5 185.37 243.419 185.391 243.337 185.39V185.39ZM220.665 189.908C206.728 189.908 190.353 185.618 189.447 185.38C189.384 185.372 189.323 185.352 189.269 185.32C189.215 185.289 189.169 185.246 189.133 185.196C189.098 185.146 189.074 185.089 189.064 185.029C189.054 184.97 189.057 184.908 189.074 184.85C189.091 184.792 189.121 184.738 189.161 184.691C189.202 184.645 189.253 184.607 189.31 184.581C189.367 184.555 189.43 184.541 189.493 184.539C189.557 184.538 189.62 184.55 189.678 184.574C189.977 184.647 219.218 192.318 232.739 187.414C232.968 187.334 233.223 187.445 233.308 187.662C233.329 187.712 233.34 187.767 233.339 187.821C233.338 187.876 233.325 187.929 233.302 187.979C233.278 188.029 233.245 188.074 233.202 188.11C233.16 188.147 233.111 188.176 233.057 188.194C229.064 189.453 224.869 190.033 220.664 189.908H220.665ZM336.779 114.312H338.881V117.281H336.779V114.312Z" fill="#231F20"/>
<path d="M338.881 117.685H336.779C336.666 117.685 336.557 117.643 336.475 117.567C336.394 117.492 336.348 117.389 336.345 117.281V114.312C336.345 114.258 336.356 114.205 336.378 114.155C336.4 114.106 336.432 114.061 336.473 114.023C336.513 113.986 336.561 113.956 336.614 113.937C336.666 113.917 336.723 113.908 336.779 113.909H338.881C339.116 113.909 339.306 114.089 339.306 114.312V117.282C339.306 117.335 339.295 117.387 339.274 117.436C339.252 117.485 339.221 117.53 339.182 117.567C339.142 117.605 339.095 117.634 339.044 117.655C338.992 117.675 338.937 117.685 338.881 117.685ZM337.204 116.869H338.458V114.716H337.204V116.869Z" fill="#231F20"/>
<path d="M223.914 105.661L223.22 105.02C225.362 102.996 226.759 100.369 227.206 97.5294C227.653 94.6894 227.124 91.7882 225.699 89.257L226.528 88.79C228.057 91.4956 228.629 94.5982 228.158 97.6374C227.687 100.677 226.199 103.49 223.914 105.661V105.661ZM255.74 117.685L254.843 117.345C257.66 110.445 256.945 105.35 256.945 105.304L257.91 105.176C257.929 105.368 258.652 110.536 255.74 117.685ZM177.886 79.78L184.873 72.993L185.561 73.633L178.575 80.421L177.886 79.78ZM304.199 168.901L304.623 168.078L312.045 171.531L311.622 172.355L304.199 168.901Z" fill="white"/>
<path d="M56.5466 105.082C56.1409 104.991 55.7068 104.927 55.3116 104.798C54.6907 104.652 54.1205 104.355 53.6571 103.935C53.1938 103.516 52.8532 102.989 52.6691 102.406C52.5366 101.899 52.5197 101.371 52.6194 100.857C52.7191 100.344 52.9332 99.8564 53.2472 99.428C53.7737 98.6693 54.4578 98.0211 55.2573 97.5231C56.0567 97.025 56.9548 96.6878 57.8963 96.532C59.1408 96.266 59.7 96.331 61.6771 96.789V74.72L84.5146 70.377V97.365C84.5432 98.0577 84.4062 98.7477 84.1137 99.3827C83.8213 100.018 83.3812 100.581 82.8265 101.031C81.9202 101.866 80.797 102.457 79.5718 102.744C78.3466 103.03 77.0634 103.002 75.8534 102.662C75.2273 102.53 74.6507 102.238 74.1853 101.819C73.7198 101.399 73.383 100.867 73.2109 100.279C73.0709 99.7747 73.0494 99.2472 73.1479 98.7341C73.2463 98.2209 73.4624 97.7347 73.7806 97.31C74.3067 96.5472 74.9928 95.8962 75.7959 95.3979C76.599 94.8995 77.5018 94.5645 78.4476 94.414C79.6949 94.1547 80.9943 94.244 82.1895 94.671V79.496L80.5698 79.798C75.1479 80.8347 69.7245 81.8644 64.2996 82.887C64.0011 82.942 63.9528 83.052 63.9528 83.308V99.401C63.9806 100.223 63.7913 101.039 63.402 101.774C63.0127 102.509 62.4359 103.139 61.7244 103.607C60.6599 104.372 59.4035 104.858 58.0802 105.018C58.0112 105.035 57.9434 105.057 57.8773 105.082H56.5466V105.082ZM417.927 168.33V167.807C417.867 167.327 417.678 166.869 417.377 166.479C416.888 165.802 416.254 165.23 415.517 164.802C414.779 164.352 413.957 164.041 413.096 163.885C412.548 163.785 411.985 163.785 411.437 163.885H411.292C411.287 163.824 411.287 163.763 411.292 163.702C411.389 163.344 411.485 162.996 411.591 162.657L413.52 156.242C414.224 153.914 414.939 151.587 415.642 149.259V149.122L414.967 149.067C413.12 148.973 411.274 149.287 409.575 149.983C407.988 150.606 406.662 151.711 405.805 153.126C405.563 153.53 405.381 153.96 405.178 154.391C405.043 154.666 404.936 154.959 404.811 155.243C404.806 155.283 404.806 155.323 404.811 155.363L405.053 155.225C405.818 154.747 406.621 154.325 407.454 153.96C408.739 153.411 410.147 153.172 411.553 153.264C412.158 153.32 412.754 153.447 413.327 153.64C413.323 153.686 413.323 153.731 413.327 153.777C412.157 157.638 410.997 161.497 409.846 165.351C409.831 165.421 409.831 165.492 409.846 165.562C409.928 166.244 410.232 166.884 410.713 167.395C411.324 168.104 412.095 168.671 412.97 169.054L413.723 169.365L414.416 169.558H414.61C415.183 169.668 415.773 169.668 416.346 169.558C416.829 169.493 417.27 169.265 417.59 168.916C417.695 168.777 417.79 168.634 417.88 168.486L417.927 168.33V168.33ZM74.7708 177.346C74.7708 177.126 74.7708 176.896 74.878 176.676C75.0462 176.072 75.3794 175.519 75.8419 175.073C76.6204 174.301 77.5598 173.692 78.6 173.286C79.6415 172.851 80.7614 172.611 81.8984 172.58C82.6238 172.559 83.3469 172.668 84.03 172.901L84.2129 172.965C84.2182 172.886 84.2182 172.806 84.2129 172.727C84.2129 172.26 84.1162 171.811 84.0584 171.334C83.6926 168.444 83.3226 165.564 82.9495 162.692C82.5448 159.558 82.1296 156.433 81.7249 153.308V153.125C82.0235 153.125 82.323 153.125 82.6026 153.189C85.0002 153.416 87.3105 154.166 89.3539 155.379C91.2524 156.49 92.7131 158.165 93.51 160.145C93.7202 160.715 93.8979 161.297 94.0408 161.885C94.1564 162.271 94.2332 162.665 94.3299 163.059C94.3447 163.11 94.3447 163.164 94.3299 163.215L94.0503 162.985C93.1672 162.223 92.2256 161.525 91.2333 160.896C89.7062 159.942 87.9528 159.365 86.1322 159.219C85.3421 159.17 84.5486 159.213 83.7694 159.347C83.7746 159.405 83.7746 159.464 83.7694 159.522C84.4126 164.702 85.0717 169.895 85.7465 175.101C85.7656 175.188 85.7656 175.279 85.7465 175.366C85.5001 176.241 84.9706 177.02 84.2329 177.593C83.2977 178.387 82.1816 178.964 80.9723 179.279C80.636 179.38 80.2881 179.454 79.9507 179.536L78.9857 179.646H78.8333C78.0739 179.692 77.3126 179.592 76.5945 179.353C75.9934 179.182 75.4792 178.807 75.1492 178.299C75.037 178.101 74.94 177.896 74.8591 177.685L74.7729 177.345L74.7708 177.346ZM305.697 96.066C305.822 95.828 305.928 95.581 306.072 95.361C306.522 94.7381 307.134 94.2362 307.847 93.904C309.048 93.3242 310.361 92.9871 311.705 92.914C313.059 92.8119 314.421 92.9579 315.717 93.344C316.548 93.5878 317.321 93.9835 317.993 94.509L318.176 94.646C318.222 94.5607 318.261 94.4717 318.291 94.38C318.436 93.84 318.571 93.299 318.697 92.749L321.011 82.577C321.841 78.911 322.667 75.227 323.49 71.525L323.538 71.305C323.875 71.442 324.194 71.561 324.502 71.699C327.105 72.8505 329.396 74.5561 331.196 76.684C332.889 78.645 333.852 81.0843 333.934 83.621C333.934 84.341 333.896 85.06 333.818 85.775C333.818 86.261 333.713 86.691 333.654 87.214C333.648 87.2724 333.628 87.3288 333.596 87.379L333.365 87.021C332.686 85.8333 331.912 84.6966 331.051 83.621C329.722 81.9686 327.977 80.6608 325.978 79.818C325.108 79.4673 324.194 79.224 323.259 79.094H323.19C323.18 79.1654 323.164 79.2359 323.142 79.305L318.976 97.579C318.954 97.686 318.911 97.7883 318.85 97.881C318.211 98.7757 317.294 99.4581 316.228 99.833C314.842 100.375 313.344 100.61 311.849 100.52C311.425 100.52 311.01 100.465 310.585 100.429L309.477 100.209L309.294 100.135C308.419 99.9045 307.602 99.5086 306.892 98.971C306.288 98.5467 305.861 97.9333 305.686 97.239C305.649 96.9746 305.627 96.7086 305.619 96.442L305.697 96.066V96.066Z" fill="#CD7DF3"/>
<path d="M40.0389 50.8C35.0724 50.8 35.063 58.131 40.0389 58.131C45.0159 58.131 45.0159 50.801 40.0389 50.801V50.8ZM415.286 58.8C410.319 58.8 410.31 66.131 415.286 66.131C420.263 66.131 420.263 58.801 415.286 58.801V58.8ZM351.82 41.917C351.727 41.6143 351.559 41.3376 351.329 41.111L350.933 40.827C350.641 40.662 350.308 40.5734 349.968 40.57H349.428C349.17 40.5591 348.913 40.6162 348.686 40.735C348.444 40.805 348.229 40.935 348.06 41.111C347.879 41.2722 347.743 41.4736 347.663 41.697C347.543 41.914 347.486 42.158 347.499 42.403L347.568 42.898C347.658 43.202 347.827 43.478 348.06 43.704L348.455 43.989C348.748 44.15 349.08 44.235 349.419 44.236H349.959C350.217 44.25 350.474 44.196 350.702 44.08C350.94 44.005 351.154 43.876 351.329 43.704C351.669 43.3459 351.866 42.8861 351.888 42.404C351.869 42.247 351.839 42.082 351.821 41.917H351.82ZM121.468 33.349C118.362 33.349 118.353 37.931 121.468 37.931C124.583 37.931 124.573 33.349 121.468 33.349ZM399.312 77.839C396.206 77.839 396.206 82.422 399.312 82.422C402.417 82.422 402.417 77.84 399.312 77.84V77.839Z" fill="#698DFF"/>
</g>
</g>
<defs>
<clipPath id="clip0_8_2">
<rect width="473" height="220" rx="8" fill="white"/>
</clipPath>
</defs>
</svg>
